<?xml version="1.0" standalone="no"?>
<!DOCTYPE svg PUBLIC "-//W3C//DTD SVG 20010904//EN"
 "http://www.w3.org/TR/2001/REC-SVG-20010904/DTD/svg10.dtd">
<svg version="1.0" xmlns="http://www.w3.org/2000/svg"
 width="500.000000pt" height="500.000000pt" viewBox="0 0 500.000000 500.000000"
 preserveAspectRatio="xMidYMid meet">

<g transform="translate(0.000000,500.000000) scale(0.100000,-0.100000)"
fill="#000000" stroke="none">
<path d="M2464 4231 c-48 -12 -97 -46 -118 -82 -11 -18 -23 -65 -28 -104 -4
-38 -10 -89 -14 -113 -5 -37 -2 -50 26 -95 18 -29 35 -71 38 -94 4 -38 1 -46
-25 -70 -16 -16 -47 -34 -69 -41 -94 -32 -172 -71 -204 -104 -44 -43 -60 -91
-76 -220 -23 -185 -41 -266 -70 -317 -39 -66 -118 -164 -171 -211 -45 -40 -47
-40 -119 -38 -63 2 -76 0 -88 -17 -18 -23 -20 -78 -5 -106 10 -19 9 -19 -27
-4 -39 16 -54 13 -54 -11 0 -21 77 -54 129 -54 37 0 42 -2 36 -17 -4 -10 -10
-40 -12 -68 -4 -44 -1 -55 29 -99 43 -63 123 -118 213 -148 64 -21 86 -23 275
-22 113 1 251 6 308 12 84 10 132 9 265 -4 241 -23 408 -3 535 67 128 69 171
149 137 255 -6 19 -2 22 42 26 66 6 107 28 111 57 3 19 0 23 -15 18 -68 -21
-67 -21 -58 -1 17 41 16 70 -3 94 -18 23 -27 25 -88 22 -88 -3 -108 10 -206
133 -49 63 -107 152 -107 165 0 3 -2 12 -4 20 -16 48 -30 130 -43 238 -8 68
-20 138 -28 156 -31 75 -115 136 -245 176 -61 19 -101 60 -101 102 0 31 7 47
54 129 17 30 18 40 6 138 -8 76 -19 117 -35 146 -37 64 -123 102 -191 86z m80
-55 c59 -25 85 -72 97 -174 10 -88 9 -92 -16 -143 -39 -76 -68 -99 -124 -99
-56 1 -76 16 -119 92 l-33 57 10 92 c11 102 36 148 94 173 42 19 51 19 91 2z
m-26 -463 c20 3 45 8 55 12 14 6 17 2 17 -23 0 -50 62 -99 175 -136 72 -23
109 -49 142 -98 31 -44 53 -130 53 -202 0 -53 18 -147 43 -221 26 -78 94 -180
178 -265 73 -75 108 -91 182 -83 49 6 62 -4 53 -41 -5 -22 -43 -46 -73 -46
-40 0 -263 136 -350 214 -50 45 -80 94 -109 181 -31 93 -36 120 -43 215 l-6
95 -33 -89 c-75 -204 -96 -328 -68 -409 23 -68 40 -98 73 -128 46 -43 82 -56
193 -68 282 -33 335 -57 334 -160 0 -55 -37 -96 -125 -140 -103 -52 -172 -60
-555 -64 l-311 -3 71 36 c122 62 140 72 172 96 82 61 189 104 424 172 31 9 27
10 -44 11 -52 1 -103 -6 -150 -20 -103 -29 -123 -38 -211 -89 -44 -25 -87 -49
-96 -52 -18 -7 -64 15 -146 69 -85 56 -174 84 -285 90 -54 3 -98 3 -98 1 0 -3
33 -13 73 -23 39 -9 77 -21 82 -25 6 -4 28 -13 50 -20 67 -21 255 -125 255
-142 0 -13 -158 -71 -245 -89 -198 -41 -386 -7 -479 86 -58 58 -69 100 -40
161 30 62 73 77 314 104 153 18 206 47 247 138 50 108 43 213 -30 432 l-42
125 -7 -100 c-7 -102 -12 -131 -43 -220 -41 -121 -81 -166 -243 -272 -178
-117 -225 -132 -276 -92 -30 23 -34 55 -8 63 9 3 40 5 69 5 67 -2 120 29 189
108 58 67 122 157 136 193 24 58 58 237 58 306 0 65 28 142 66 184 26 29 58
48 117 71 145 56 187 86 187 137 0 28 8 32 42 20 16 -6 46 -8 66 -5z m302
-656 c0 -29 24 -96 56 -159 39 -77 117 -149 249 -227 16 -10 1 -11 -75 -7 -52
4 -112 11 -133 17 -48 13 -104 62 -122 107 -18 42 -20 166 -4 245 11 55 29 69
29 24z m-600 -148 c0 -108 -34 -180 -103 -214 -36 -18 -137 -35 -212 -35 l-50
0 29 15 c59 31 156 106 190 148 35 43 77 126 90 179 3 15 11 40 17 55 l12 28
13 -50 c8 -27 14 -84 14 -126z"/>
<path d="M3388 3253 c6 -2 18 -2 25 0 6 3 1 5 -13 5 -14 0 -19 -2 -12 -5z"/>
<path d="M2265 1852 c-3 -3 -5 -142 -5 -309 l0 -303 35 0 35 0 0 308 0 307
-30 1 c-16 1 -32 -1 -35 -4z"/>
<path d="M962 1649 c-74 -37 -94 -113 -44 -167 19 -20 53 -38 113 -57 93 -29
118 -51 97 -84 -27 -44 -102 -54 -158 -20 -19 12 -38 25 -41 30 -3 5 -16 -2
-29 -16 -30 -32 -21 -51 40 -82 86 -44 220 -20 254 46 41 78 4 149 -92 177
-116 34 -127 40 -130 70 -7 55 69 72 142 33 21 -11 39 -19 40 -17 1 2 10 13
20 25 16 19 17 25 6 38 -39 47 -148 58 -218 24z"/>
<path d="M1412 1657 c-50 -19 -102 -65 -123 -111 -24 -53 -24 -139 0 -191 76
-168 334 -166 407 3 77 177 -101 365 -284 299z m159 -88 c40 -28 59 -69 59
-126 0 -39 -6 -56 -30 -85 -71 -85 -201 -66 -239 35 -25 65 -1 145 53 178 43
26 119 25 157 -2z"/>
<path d="M2522 1649 c-52 -26 -92 -76 -71 -90 42 -29 48 -29 59 -9 42 78 200
53 200 -32 0 -26 -3 -28 -41 -28 -72 0 -183 -22 -211 -41 -32 -23 -52 -78 -43
-119 8 -38 65 -87 110 -96 49 -9 112 3 145 26 35 25 40 25 40 0 0 -17 7 -20
41 -20 l41 0 -3 163 c-4 162 -4 164 -33 201 -51 67 -150 86 -234 45z m188
-241 c0 -63 -62 -111 -137 -106 -37 2 -50 9 -66 31 l-21 27 21 28 c17 23 31
28 99 37 91 12 104 10 104 -17z"/>
<path d="M3014 1651 c-18 -11 -35 -24 -39 -30 -9 -16 -25 -3 -25 20 0 15 -7
19 -35 19 l-35 0 0 -210 0 -210 39 0 40 0 3 149 c3 141 4 151 27 175 29 31 90
43 128 24 50 -24 63 -67 63 -215 l0 -133 41 0 41 0 -4 158 c-3 176 -13 206
-78 249 -43 30 -122 31 -166 4z"/>
<path d="M3460 1654 c-116 -50 -170 -196 -114 -306 65 -127 248 -158 355 -61
l40 37 -36 22 -36 21 -28 -28 c-31 -30 -85 -45 -128 -34 -15 3 -44 23 -65 44
-36 36 -38 42 -38 99 0 54 4 65 30 96 57 64 141 71 199 17 28 -26 31 -27 55
-12 34 21 33 34 -6 67 -66 55 -155 70 -228 38z"/>
<path d="M3895 1651 c-80 -37 -125 -111 -125 -203 1 -95 60 -180 146 -208 51
-17 144 -7 193 21 47 26 54 40 35 67 l-14 21 -43 -25 c-52 -29 -134 -33 -178
-7 -27 16 -59 66 -59 92 0 8 52 11 165 11 l166 0 -7 53 c-9 67 -27 109 -61
143 -55 55 -144 69 -218 35z m128 -55 c29 -7 67 -57 67 -88 0 -16 -12 -18
-121 -18 -106 0 -120 2 -115 16 3 9 6 19 6 23 0 29 92 84 125 75 6 -1 23 -5
38 -8z"/>
<path d="M1790 1493 c0 -147 2 -172 19 -199 40 -65 156 -86 225 -39 44 30 46
30 46 5 0 -17 7 -20 40 -20 l40 0 0 210 0 210 -40 0 -40 0 0 -135 c0 -151 -9
-184 -60 -210 -45 -23 -85 -19 -122 14 l-33 29 -3 151 -3 151 -35 0 -34 0 0
-167z"/>
</g>
</svg>
